# Blender v2.79 (sub 0) OBJ File: 'sail.blend'
# www.blender.org
v -1.290862 0.095970 0.214241
v -18.061546 21.121464 0.214241
v -1.290862 0.095970 -0.130458
v -18.061546 21.121464 -0.130458
v -0.949464 0.095970 0.214241
v -0.949464 0.095970 -0.130458
v -1.109526 27.298668 -0.130458
v -1.109526 27.298668 0.214242
v -3.016707 24.974762 -0.130458
v -3.016707 24.974762 0.214242
v -0.949464 27.598118 -0.130458
v -0.949464 27.598118 0.214241
v -7.991940 21.650417 -0.130456
v -7.991940 21.650417 0.214241
v -13.860627 20.483063 -0.130456
v -13.860627 20.483063 0.214241
v -10.868796 20.777733 -0.130456
v -10.868796 20.777733 0.214241
v -5.340613 23.067579 -0.130456
v -5.340613 23.067579 0.214241
v -18.028408 21.134457 0.214241
v -18.028408 21.134457 -0.130458
v -16.852459 20.777735 -0.130456
v -16.852459 20.777735 0.214241
vt 0.980447 0.977914
vt 0.980447 0.000000
vt 0.990223 0.000000
vt 0.990224 0.977914
vt 0.960988 1.000000
vt 0.485335 0.235496
vt 0.486275 0.235024
vt 0.519628 0.247995
vt 0.604482 0.258709
vt 0.689337 0.247995
vt 0.770931 0.216263
vt 0.846128 0.164734
vt 0.912039 0.095387
vt 0.966131 0.010888
vt 0.970670 0.000000
vt 0.970670 1.000000
vt 0.980447 0.000000
vt 0.980447 1.000000
vt 0.970670 1.000000
vt 0.970670 0.000000
vt 0.000000 1.000000
vt 0.000000 0.000000
vt 0.004540 0.010888
vt 0.058631 0.095387
vt 0.124542 0.164734
vt 0.199740 0.216263
vt 0.281333 0.247995
vt 0.366188 0.258709
vt 0.451043 0.247995
vt 0.484395 0.235024
vt 0.485335 0.235496
vt 0.009683 1.000000
vt 0.990224 0.985655
vt 0.980447 0.985655
vt 0.990224 0.467915
vt 1.000000 0.467915
vt 1.000000 0.561562
vt 0.990224 0.561562
vt 0.990224 0.041691
vt 1.000000 0.041691
vt 1.000000 0.147780
vt 0.990224 0.147780
vt 0.990224 0.001261
vt 1.000000 0.001261
vt 1.000000 0.256970
vt 0.990224 0.256971
vt 1.000000 0.000000
vt 1.000000 0.642410
vt 0.990224 0.642410
vt 1.000000 0.365067
vt 0.990224 0.365067
vt 1.000000 0.649744
vt 0.990224 0.649744
vn -0.7818 -0.6236 0.0000
vn -0.0000 0.0000 -1.0000
vn 1.0000 0.0000 0.0000
vn 0.0000 0.0000 1.0000
vn 0.0000 -1.0000 0.0000
vn -0.6344 0.7730 0.0000
vn 0.0980 0.9952 0.0000
vn 0.2903 0.9569 0.0000
vn -0.0980 0.9952 0.0000
vn -0.3650 0.9310 0.0000
vn -0.7730 0.6344 0.0000
vn -0.2903 0.9569 0.0000
vn -0.8819 0.4714 0.0000
vn -0.4714 0.8819 0.0000
g Cube.002_Cube.002_None
s off
f 1/1/1 2/2/1 4/3/1 3/4/1
f 3/5/2 4/6/2 22/7/2 23/8/2 15/9/2 17/10/2 13/11/2 19/12/2 9/13/2 7/14/2 11/15/2 6/16/2
f 6/17/3 11/18/3 12/19/3 5/20/3
f 5/21/4 12/22/4 8/23/4 10/24/4 20/25/4 14/26/4 18/27/4 16/28/4 24/29/4 21/30/4 2/31/4 1/32/4
f 3/4/5 6/33/5 5/34/5 1/1/5
f 19/35/6 20/36/6 10/37/6 9/38/6
f 23/39/7 24/40/7 16/41/7 15/42/7
f 24/40/8 23/39/8 22/43/8 21/44/8
f 15/42/9 16/41/9 18/45/9 17/46/9
f 21/44/10 22/43/10 4/3/10 2/47/10
f 9/38/11 10/37/11 8/48/11 7/49/11
f 17/46/12 18/45/12 14/50/12 13/51/12
f 7/49/13 8/48/13 12/52/13 11/53/13
f 13/51/14 14/50/14 20/36/14 19/35/14
