# Blender v2.79 (sub 0) OBJ File: 'boat.blend'
# www.blender.org
mtllib sailing_boat.mtl
o Cube_Cube.006
v -0.646199 2.303234 16.931175
v -0.646199 35.313278 16.931175
v -0.646199 2.303234 16.292622
v -0.646199 35.313278 16.292622
v -0.007646 2.303234 16.931175
v -0.007646 35.313278 16.931175
v -0.007646 2.303234 16.292622
v -0.007646 35.313278 16.292622
v -21.737064 1.337298 15.475788
v -21.737064 3.337297 15.475788
v -21.737064 1.337298 13.475788
v -21.737064 3.337297 13.475788
v -0.933146 1.337304 15.475706
v -0.933146 3.337304 15.475706
v -0.933146 1.337304 13.475706
v -0.933146 3.337304 13.475706
v -21.737064 1.337297 1.311622
v -21.737064 3.337297 1.311622
v -21.737064 1.337297 -0.688379
v -21.737064 3.337297 -0.688379
v -0.933146 1.337304 1.311539
v -0.933146 3.337304 1.311539
v -0.933146 1.337304 -0.688461
v -0.933146 3.337304 -0.688461
v -22.719635 -1.957778 22.611622
v -22.719635 2.802147 22.611622
v -22.719635 -1.957778 -7.958498
v -22.719635 2.802146 -7.958498
v -20.719635 -1.957777 22.611614
v -20.719635 2.802147 22.611614
v -20.719635 -1.957777 -7.958508
v -20.719635 2.802147 -7.958508
v -2.779497 -2.334890 27.326042
v -2.779497 2.397110 27.326042
v -2.779497 -2.334891 -11.622570
v -2.779497 2.397110 -11.622570
v 2.417637 -2.334888 27.326019
v 2.417637 2.397112 27.326019
v 2.417637 -2.334889 -11.622591
v 2.417637 2.397111 -11.622591
vt 0.000000 0.000000
vt 1.000000 0.000000
vt 1.000000 1.000000
vt 0.000000 1.000000
vt 0.000000 0.000000
vt 1.000000 0.000000
vt 1.000000 1.000000
vt 0.000000 1.000000
vt 0.000000 0.000000
vt 1.000000 0.000000
vt 1.000000 1.000000
vt 0.000000 1.000000
vt 0.000000 0.000000
vt 1.000000 0.000000
vt 1.000000 1.000000
vt 0.000000 1.000000
vt 1.000000 0.000000
vt 1.000000 1.000000
vt 0.000000 0.000000
vt 1.000000 0.000000
vt 1.000000 1.000000
vt 0.000000 1.000000
vt 0.000000 0.000000
vt 1.000000 0.000000
vt 1.000000 1.000000
vt 0.000000 1.000000
vt 0.000000 0.000000
vt 1.000000 0.000000
vt 1.000000 1.000000
vt 0.000000 1.000000
vt 1.000000 0.000000
vt 1.000000 1.000000
vt 0.000000 0.000000
vt 0.000000 1.000000
vt 0.000000 0.000000
vt 1.000000 0.000000
vt 1.000000 1.000000
vt 0.000000 1.000000
vt 0.000000 0.000000
vt 1.000000 0.000000
vt 1.000000 1.000000
vt 0.000000 1.000000
vt 0.000000 0.000000
vt 1.000000 0.000000
vt 1.000000 1.000000
vt 0.000000 1.000000
vt 1.000000 0.000000
vt 1.000000 1.000000
vt 0.000000 0.000000
vt 0.000000 1.000000
vt 0.000000 0.000000
vt 1.000000 0.000000
vt 1.000000 1.000000
vt 0.000000 1.000000
vt 0.000000 0.000000
vt 1.000000 0.000000
vt 1.000000 1.000000
vt 0.000000 1.000000
vt 0.000000 0.000000
vt 1.000000 0.000000
vt 1.000000 1.000000
vt 0.000000 1.000000
vt 0.000000 0.000000
vt 1.000000 0.000000
vt 1.000000 1.000000
vt 0.000000 1.000000
vt 0.000000 0.000000
vt 0.000000 1.000000
vt 0.000000 0.000000
vt 1.000000 0.000000
vt 1.000000 1.000000
vt 0.000000 1.000000
vt 0.000000 0.000000
vt 1.000000 0.000000
vt 1.000000 1.000000
vt 0.000000 1.000000
vt 0.000000 0.000000
vt 1.000000 0.000000
vt 1.000000 1.000000
vt 0.000000 1.000000
vt 1.000000 0.000000
vt 1.000000 1.000000
vt 0.000000 0.000000
vt 0.000000 1.000000
vt 0.000000 0.000000
vt 0.000000 1.000000
vt 0.000000 0.000000
vt 1.000000 0.000000
vt 1.000000 1.000000
vt 0.000000 1.000000
vt 0.000000 0.000000
vt 1.000000 0.000000
vt 1.000000 1.000000
vt 0.000000 1.000000
vt 1.000000 0.000000
vt 1.000000 1.000000
vt 0.000000 0.000000
vt 1.000000 0.000000
vt 1.000000 1.000000
vt 0.000000 1.000000
vn -1.0000 0.0000 0.0000
vn 0.0000 0.0000 -1.0000
vn 1.0000 0.0000 0.0000
vn 0.0000 0.0000 1.0000
vn 0.0000 -1.0000 0.0000
vn -0.0000 1.0000 0.0000
vn 0.5773 0.5773 -0.5773
vn -0.5773 0.5773 -0.5773
vn -0.5773 0.5773 0.5773
vn 0.5773 0.5773 0.5773
vn -0.5773 -0.5773 0.5773
vn -0.5773 -0.5773 -0.5773
vn 0.5773 -0.5773 -0.5773
vn 0.5773 -0.5773 0.5773
usemtl None
s off
f 1/1/1 2/2/1 4/3/1 3/4/1
f 3/5/2 4/6/2 8/7/2 7/8/2
f 7/9/3 8/10/3 6/11/3 5/12/3
f 5/13/4 6/14/4 2/15/4 1/16/4
f 3/5/5 7/17/5 5/18/5 1/16/5
f 11/19/2 12/20/2 16/21/2 15/22/2
f 15/23/3 16/24/3 14/25/3 13/26/3
f 13/27/4 14/28/4 10/29/4 9/30/4
f 11/19/5 15/31/5 13/32/5 9/30/5
f 16/33/6 12/20/6 10/29/6 14/34/6
f 19/35/2 20/36/2 24/37/2 23/38/2
f 23/39/3 24/40/3 22/41/3 21/42/3
f 21/43/4 22/44/4 18/45/4 17/46/4
f 19/35/5 23/47/5 21/48/5 17/46/5
f 24/49/6 20/36/6 18/45/6 22/50/6
f 25/51/1 26/52/1 28/53/1 27/54/1
f 27/55/2 28/56/2 32/57/2 31/58/2
f 31/59/3 32/60/3 30/61/3 29/62/3
f 29/63/4 30/64/4 26/65/4 25/66/4
f 32/67/6 28/56/6 26/65/6 30/68/6
f 33/69/1 34/70/1 36/71/1 35/72/1
f 35/73/2 36/74/2 40/75/2 39/76/2
f 37/77/4 38/78/4 34/79/4 33/80/4
f 35/73/5 39/81/5 37/82/5 33/80/5
f 40/83/6 36/74/6 34/79/6 38/84/6
s 1
f 8/85/7 4/6/8 2/15/9 6/86/10
f 9/87/11 10/88/9 12/89/8 11/90/12
f 17/91/11 18/92/9 20/93/8 19/94/12
f 27/55/12 31/95/13 29/96/14 25/66/11
f 39/97/13 40/98/7 38/99/10 37/100/14
