# Blender v2.79 (sub 0) OBJ File: 'sail.blend'
# www.blender.org
mtllib sailing_sail.mtl
o Cube.001_Cube
v -10.511664 20.251165 0.202488
v -0.690004 26.405293 0.202488
v -10.511664 20.251165 -0.171178
v -0.690004 26.405293 -0.171178
v -0.690004 -0.003203 0.202488
v -0.690004 -0.003203 -0.171178
vn -0.5310 0.8474 0.0000
vn -0.0000 0.0000 -1.0000
vn 1.0000 0.0000 0.0000
vn -0.0000 0.0000 1.0000
vn -0.8998 -0.4363 0.0000
usemtl None
s off
f 1//1 2//1 4//1 3//1
f 3//2 4//2 6//2
f 6//3 4//3 2//3 5//3
f 5//4 2//4 1//4
f 3//5 6//5 5//5 1//5
