# Blender v2.79 (sub 0) OBJ File: 'sail.blend'
# www.blender.org
mtllib sailing_sail.mtl
o Cube_Cube.001
v -0.030617 0.037953 0.152148
v -0.030617 28.008482 0.152148
v -19.374378 0.037953 0.447678
v -0.030617 0.037953 -0.171720
v -0.030617 28.008482 -0.171720
v -19.374378 0.037953 0.127805
vn 0.0153 0.0000 0.9999
vn -0.8225 0.5688 0.0000
vn -0.0155 0.0000 -0.9999
vn 1.0000 0.0000 0.0000
vn 0.0000 -1.0000 0.0000
usemtl None
s off
f 1//1 2//1 3//1
f 3//2 2//2 5//2 6//2
f 6//3 5//3 4//3
f 4//4 5//4 2//4 1//4
f 3//5 6//5 4//5 1//5
