# Blender v2.79 (sub 0) OBJ File: 'sail.blend'
# www.blender.org
mtllib sailing_sail.mtl
o Cube.001_Cube
v -10.511664 20.251165 0.202488
v -0.690004 26.405293 0.202488
v -10.511664 20.251165 -0.171178
v -0.690004 26.405293 -0.171178
v -0.690004 -0.003203 0.202488
v -0.690004 -0.003203 -0.171178
vt 0.516576 0.594648
vt 0.000127 0.845382
vt 0.014999 0.813626
vt 0.483730 0.590329
vt 0.021031 0.044234
vt 0.000127 0.000127
vt 0.888649 0.000127
vt 0.888649 0.999873
vt 0.516830 0.766896
vn -0.5310 0.8474 0.0000
vn -0.0000 0.0000 -1.0000
vn 1.0000 0.0000 0.0000
vn -0.0000 0.0000 1.0000
vn -0.8998 -0.4363 0.0000
usemtl None
s off
f 1/1/1 2/2/1 4/3/1 3/4/1
f 3/4/2 4/3/2 6/5/2
f 6/5/3 4/3/3 2/2/3 5/6/3
f 5/7/4 2/8/4 1/9/4
f 3/4/5 6/5/5 5/6/5 1/1/5
