# Blender v2.79 (sub 0) OBJ File: 'boat.blend'
# www.blender.org
mtllib sailing_boat.mtl
o Cube_Cube.006
v -0.646199 2.303234 16.931175
v -0.646199 35.313278 16.931175
v -0.646199 2.303234 16.292622
v -0.646199 35.313278 16.292622
v -0.007646 2.303234 16.931175
v -0.007646 35.313278 16.931175
v -0.007646 2.303234 16.292622
v -0.007646 35.313278 16.292622
v -21.737064 1.337298 15.475788
v -21.737064 3.337297 15.475788
v -21.737064 1.337298 13.475788
v -21.737064 3.337297 13.475788
v -0.933146 1.337304 15.475706
v -0.933146 3.337304 15.475706
v -0.933146 1.337304 13.475706
v -0.933146 3.337304 13.475706
v -21.737064 1.337297 1.311622
v -21.737064 3.337297 1.311622
v -21.737064 1.337297 -0.688379
v -21.737064 3.337297 -0.688379
v -0.933146 1.337304 1.311539
v -0.933146 3.337304 1.311539
v -0.933146 1.337304 -0.688461
v -0.933146 3.337304 -0.688461
v -22.719635 -1.957778 22.611622
v -22.719635 2.802147 22.611622
v -22.719635 -1.957778 -7.958498
v -22.719635 2.802146 -7.958498
v -20.719635 -1.957777 22.611614
v -20.719635 2.802147 22.611614
v -20.719635 -1.957777 -7.958508
v -20.719635 2.802147 -7.958508
v -2.779497 -2.334890 27.326042
v -2.779497 2.397110 27.326042
v -2.779497 -2.334891 -11.622570
v -2.779497 2.397110 -11.622570
v 2.417637 -2.334888 27.326019
v 2.417637 2.397112 27.326019
v 2.417637 -2.334889 -11.622591
v 2.417637 2.397111 -11.622591
vn -1.0000 0.0000 0.0000
vn 0.0000 0.0000 -1.0000
vn 1.0000 0.0000 0.0000
vn 0.0000 0.0000 1.0000
vn 0.0000 -1.0000 0.0000
vn -0.0000 1.0000 0.0000
vn 0.5773 0.5773 -0.5773
vn -0.5773 0.5773 -0.5773
vn -0.5773 0.5773 0.5773
vn 0.5773 0.5773 0.5773
vn -0.5773 -0.5773 0.5773
vn -0.5773 -0.5773 -0.5773
vn 0.5773 -0.5773 -0.5773
vn 0.5773 -0.5773 0.5773
usemtl None
s off
f 1//1 2//1 4//1 3//1
f 3//2 4//2 8//2 7//2
f 7//3 8//3 6//3 5//3
f 5//4 6//4 2//4 1//4
f 3//5 7//5 5//5 1//5
f 11//2 12//2 16//2 15//2
f 15//3 16//3 14//3 13//3
f 13//4 14//4 10//4 9//4
f 11//5 15//5 13//5 9//5
f 16//6 12//6 10//6 14//6
f 19//2 20//2 24//2 23//2
f 23//3 24//3 22//3 21//3
f 21//4 22//4 18//4 17//4
f 19//5 23//5 21//5 17//5
f 24//6 20//6 18//6 22//6
f 25//1 26//1 28//1 27//1
f 27//2 28//2 32//2 31//2
f 31//3 32//3 30//3 29//3
f 29//4 30//4 26//4 25//4
f 32//6 28//6 26//6 30//6
f 33//1 34//1 36//1 35//1
f 35//2 36//2 40//2 39//2
f 37//4 38//4 34//4 33//4
f 35//5 39//5 37//5 33//5
f 40//6 36//6 34//6 38//6
s 1
f 8//7 4//8 2//9 6//10
f 9//11 10//9 12//8 11//12
f 17//11 18//9 20//8 19//12
f 27//12 31//13 29//14 25//11
f 39//13 40//7 38//10 37//14
